Coordinates
version=1
nRows=4
nColumns=124
inDegrees=yes

Units are S.I. units (second, meters, Newtons, ...)
If the header above contains a line with 'inDegrees', this indicates whether rotational values are in degrees (yes) or radians (no).

endheader 
time	pelvis_tilt	pelvis_list	pelvis_rotation	pelvis_tx	pelvis_ty	pelvis_tz	hip_flexion_l	hip_adduction_l	hip_rotation_l	hip_flexion_r	hip_adduction_r	hip_rotation_r	knee_angle_l	knee_angle_r	ankle_angle_l	ankle_angle_r	subtalar_angle_l	subtalar_angle_r	mtp_angle_l	mtp_angle_r	lumbar_extension	lumbar_bending	lumbar_rotation	arm_flex_l	arm_add_l	arm_rot_l	arm_flex_r	arm_add_r	arm_rot_r	elbow_flex_l	elbow_flex_r	glut_med1_l/activation	glut_med2_l/activation	glut_med3_l/activation	glut_min1_l/activation	glut_min2_l/activation	glut_min3_l/activation	semimem_l/activation	semiten_l/activation	bifemlh_l/activation	bifemsh_l/activation	sar_l/activation	add_long_l/activation	add_brev_l/activation	add_mag1_l/activation	add_mag2_l/activation	add_mag3_l/activation	tfl_l/activation	pect_l/activation	grac_l/activation	glut_max1_l/activation	glut_max2_l/activation	glut_max3_l/activation	iliacus_l/activation	psoas_l/activation	quad_fem_l/activation	gem_l/activation	peri_l/activation	rect_fem_l/activation	vas_med_l/activation	vas_int_l/activation	vas_lat_l/activation	med_gas_l/activation	lat_gas_l/activation	soleus_l/activation	tib_post_l/activation	flex_dig_l/activation	flex_hal_l/activation	tib_ant_l/activation	per_brev_l/activation	per_long_l/activation	per_tert_l/activation	ext_dig_l/activation	ext_hal_l/activation	ercspn_l/activation	intobl_l/activation	extobl_l/activation	glut_med1_r/activation	glut_med2_r/activation	glut_med3_r/activation	glut_min1_r/activation	glut_min2_r/activation	glut_min3_r/activation	semimem_r/activation	semiten_r/activation	bifemlh_r/activation	bifemsh_r/activation	sar_r/activation	add_long_r/activation	add_brev_r/activation	add_mag1_r/activation	add_mag2_r/activation	add_mag3_r/activation	tfl_r/activation	pect_r/activation	grac_r/activation	glut_max1_r/activation	glut_max2_r/activation	glut_max3_r/activation	iliacus_r/activation	psoas_r/activation	quad_fem_r/activation	gem_r/activation	peri_r/activation	rect_fem_r/activation	vas_med_r/activation	vas_int_r/activation	vas_lat_r/activation	med_gas_r/activation	lat_gas_r/activation	soleus_r/activation	tib_post_r/activation	flex_dig_r/activation	flex_hal_r/activation	tib_ant_r/activation	per_brev_r/activation	per_long_r/activation	per_tert_r/activation	ext_dig_r/activation	ext_hal_r/activation	ercspn_r/activation	intobl_r/activation	extobl_r/activation	
          0.00000000	          4.28331837	         -7.84885187	         -1.94809098	          0.00000000	          1.03438847	         -0.00707684	         -0.94664526	         -4.89347240	         -3.24166532	          5.83923317	         11.25502666	         -4.43230201	        -30.33570546	        -12.12132558	         -2.56298644	          3.66093636	        -13.46888803	          2.42328136	         43.82585433	          0.45830173	         -7.00185840	          8.56106977	         -5.77011487	          1.70187312	        -13.47248793	         12.97076622	         -6.88397253	        -13.46345020	          6.42999516	         36.20009315	         22.16217764	          0.56273356	          0.50752065	          0.48164160	          0.61176959	          0.59778992	          0.58365316	          0.46602617	          0.20898016	          0.44613034	          0.28079826	          0.62736926	          0.47198309	          0.47609624	          0.48852984	          0.49631432	          0.42151311	          0.61632209	          0.59222453	          0.46809318	          0.55466463	          0.47235997	          0.32607985	          0.78641604	          0.80116937	          0.52403540	          0.59386530	          0.55739904	          0.92330686	          0.68925836	          0.70428967	          0.25245135	          0.71788986	          0.68449100	          0.36132187	          0.72539211	          0.57989292	          0.58901966	          0.19264407	          0.60875946	          0.59315679	          0.54195221	          0.40507406	          0.52330327	          0.06196373	          0.09535610	          0.08667019	          0.53244148	          0.11201102	          0.10013936	          0.61730087	          0.53187612	          0.35756601	          0.19485762	          0.12677389	          0.42095399	          0.50719636	          0.68363872	          0.85287563	          0.77992981	          0.59662288	          0.57267539	          0.36155306	          0.73722430	          0.68928422	          0.58247157	          0.33935366	          0.18077256	          0.21307757	          0.90005460	          0.88977080	          0.39046787	          0.42697937	          0.20327842	          0.51728726	          0.39526223	          0.39607513	          0.25052759	          0.30505790	          0.50194320	          0.06532240	          0.44701952	          0.53649267	          0.52672237	          0.98708612	          0.44452600	          0.30445073	          0.60665946	          0.72585968	          0.68453635	          0.08021320	          0.21124855	          0.08153465	
          0.03203982	          4.33952757	         -7.05950230	         -1.73967790	          0.02069588	          1.02541916	         -0.00592349	         -0.38322650	         -4.38962930	         -4.44360394	          5.53491669	         11.23969502	         -2.36920207	        -33.82014002	        -14.06052907	         -1.02291250	          5.38721114	        -13.26051419	         -1.51597064	         43.74057216	          2.98455466	         -6.62760407	          8.92409380	         -7.43573286	          2.03879048	        -13.47563655	         12.16234607	        -11.01433846	        -13.65117431	          5.16884175	         42.59840961	         15.43887628	          0.40721474	          0.37932962	          0.34997657	          0.52921788	          0.51565378	          0.49221481	          0.50764431	          0.26343495	          0.48599013	          0.21208852	          0.52935199	          0.63638752	          0.63211369	          0.63289390	          0.60673639	          0.49527696	          0.59013809	          0.61455280	          0.52205728	          0.55309345	          0.48217976	          0.45485814	          0.74582345	          0.78447466	          0.57936198	          0.56576173	          0.50620224	          0.88209269	          0.66362540	          0.65244797	          0.25375513	          0.63483936	          0.62936699	          0.31766136	          0.71931732	          0.58844621	          0.59111247	          0.33331618	          0.55537919	          0.51956663	          0.54817440	          0.44196063	          0.54748168	          0.11138728	          0.08383767	          0.20114427	          0.64700514	          0.29492609	          0.10435597	          0.67687453	          0.61594493	          0.50221156	          0.27898998	          0.17363752	          0.43177357	          0.51177814	          0.64285374	          0.76140976	          0.66053208	          0.58255778	          0.56775982	          0.35776653	          0.77901295	          0.64854381	          0.55470774	          0.39433662	          0.23036561	          0.20811683	          0.91472532	          0.90773949	          0.27468944	          0.42194479	          0.32123168	          0.51677132	          0.42730236	          0.43173155	          0.28164317	          0.49670131	          0.55556876	          0.43159023	          0.56864953	          0.55695334	          0.56156718	          0.71580751	          0.50527895	          0.35948590	          0.58606649	          0.55854649	          0.58553737	          0.05235361	          0.18072158	          0.05328065	
          0.06407965	          4.31689030	         -6.71249570	         -1.76909554	          0.04064906	          1.01892451	         -0.00438653	          0.43946157	         -4.34711584	         -5.27226155	          5.28751991	         11.37908640	         -0.50599812	        -37.54654294	        -15.93434643	         -0.01646834	          6.77683594	        -12.88875113	         -4.10678526	         42.27525971	          6.68923692	         -6.31345063	          9.76833016	         -8.97948989	          1.90592441	        -13.46522821	         11.38289581	        -14.73460419	        -14.04184791	          3.77920262	         49.73672937	          8.98514043	          0.36178652	          0.33208410	          0.31444136	          0.51571007	          0.49349838	          0.48333020	          0.52813220	          0.32349376	          0.49950683	          0.24553252	          0.52608291	          0.69559701	          0.69691430	          0.66006723	          0.62006198	          0.50458499	          0.58297721	          0.63015647	          0.56127720	          0.53774948	          0.45029662	          0.46278629	          0.69688108	          0.74102342	          0.62165182	          0.58170223	          0.51964079	          0.75456899	          0.47054533	          0.45653647	          0.24404522	          0.51273043	          0.57046823	          0.23554174	          0.69296351	          0.59534660	          0.59231760	          0.46525211	          0.52380538	          0.46917276	          0.56335066	          0.48941827	          0.57125736	          0.12621670	          0.11937473	          0.14973940	          0.75852602	          0.40157133	          0.15228940	          0.71353053	          0.66783850	          0.52730901	          0.33674736	          0.20542542	          0.43570127	          0.45982838	          0.63475341	          0.67991031	          0.54289462	          0.56562253	          0.55830025	          0.38310588	          0.77291324	          0.61854459	          0.51464843	          0.40738449	          0.24148684	          0.20526263	          0.88729290	          0.88498254	          0.24984077	          0.40008545	          0.24018947	          0.52930012	          0.46552907	          0.46550576	          0.32038669	          0.45801457	          0.54667800	          0.38209174	          0.63440910	          0.57677435	          0.58163050	          0.66520678	          0.47866931	          0.36814345	          0.56927872	          0.52423319	          0.58579187	          0.05033502	          0.16168377	          0.05056438	
          0.09611947	          4.25626685	         -6.48302609	         -2.01835442	          0.05937584	          1.01593429	         -0.00244898	          1.60401534	         -4.47187723	         -5.74639230	          5.04952669	         11.54052903	          0.91092098	        -41.52604188	        -17.59801675	          0.47543117	          7.68964837	        -11.71903703	         -5.67974008	         38.72704675	          9.70831032	         -6.10119232	         10.66340636	        -10.39296027	          1.50541290	        -13.46355990	         10.71884133	        -18.29935704	        -14.66949346	          2.58515307	         57.19194593	          3.99706412	          0.36436491	          0.31592059	          0.28589272	          0.51154930	          0.48828891	          0.47358292	          0.54110071	          0.37053330	          0.50905578	          0.25773730	          0.52107139	          0.69977970	          0.70118983	          0.66963540	          0.62745288	          0.50095645	          0.58823497	          0.63031281	          0.57388297	          0.52633798	          0.42174919	          0.44377917	          0.64661967	          0.70174496	          0.62033193	          0.57291532	          0.50897755	          0.65353608	          0.36551065	          0.34838321	          0.24127691	          0.43743135	          0.54167757	          0.19300964	          0.65418002	          0.60252007	          0.59888318	          0.56231780	          0.49859172	          0.41315352	          0.56419224	          0.51694752	          0.57740430	          0.12656146	          0.10251384	          0.14318487	          0.81804713	          0.41527749	          0.13761826	          0.73856948	          0.68061068	          0.53921336	          0.38577145	          0.24006894	          0.43623261	          0.44313745	          0.61714696	          0.67276298	          0.56352329	          0.56000560	          0.55648969	          0.40802348	          0.76546809	          0.61924540	          0.51244303	          0.39269262	          0.22505214	          0.19745453	          0.85030843	          0.84363826	          0.21495357	          0.37529721	          0.23450659	          0.52679553	          0.46650995	          0.46836656	          0.31861331	          0.45055272	          0.54607157	          0.38223586	          0.68410567	          0.58317048	          0.58582376	          0.64608033	          0.49494899	          0.38134747	          0.57699914	          0.52718989	          0.58420941	          0.05043668	          0.20724666	          0.05063253	
